<?xml version="1.0" encoding="utf-8"?>
<!-- Generator: Adobe Illustrator 24.3.0, SVG Export Plug-In . SVG Version: 6.00 Build 0)  -->
<svg version="1.1" id="圖層_1" xmlns="http://www.w3.org/2000/svg" xmlns:xlink="http://www.w3.org/1999/xlink" x="0px" y="0px"
	 viewBox="0 0 240 50.9" style="enable-background:new 0 0 240 50.9;" xml:space="preserve">
<style type="text/css">
	.st0{clip-path:url(#SVGID_2_);fill:url(#SVGID_3_);}
	.st1{clip-path:url(#SVGID_5_);fill:#FFFFFF;}
	.st2{clip-path:url(#SVGID_5_);fill:#4385F8;}
</style>
<g>
	<defs>
		<path id="SVGID_1_" d="M11.9,0C5.3,0,0,5.3,0,11.9v39h39c6.6,0,11.9-5.3,11.9-11.9V0H11.9z"/>
	</defs>
	<clipPath id="SVGID_2_">
		<use xlink:href="#SVGID_1_"  style="overflow:visible;"/>
	</clipPath>
	
		<linearGradient id="SVGID_3_" gradientUnits="userSpaceOnUse" x1="1.541894e-06" y1="50.9191" x2="1" y2="50.9191" gradientTransform="matrix(-34.7784 60.2379 60.2379 34.7784 -3024.4111 -1775.5428)">
		<stop  offset="0" style="stop-color:#8EB5F9"/>
		<stop  offset="0.5" style="stop-color:#4385F8"/>
		<stop  offset="1" style="stop-color:#1D51AB"/>
		<stop  offset="1" style="stop-color:#1D51AB"/>
	</linearGradient>
	<polygon class="st0" points="73,12.7 38.2,73 -22,38.2 12.7,-22 	"/>
</g>
<g>
	<defs>
		<rect id="SVGID_4_" y="0" width="240" height="50.9"/>
	</defs>
	<clipPath id="SVGID_5_">
		<use xlink:href="#SVGID_4_"  style="overflow:visible;"/>
	</clipPath>
	<path class="st1" d="M25.5,8.3C15.9,8.3,8.2,16,8.2,25.5s7.7,17.2,17.2,17.2S42.7,35,42.7,25.5S35,8.3,25.5,8.3 M34.5,37.9
		c-0.2-1.3-0.9-3.1-0.9-3.1c-2,0.6-6.7,0.6-6.7,0.6l-3.2,4.1l1.9,1.3c0,0-0.1,0-0.1,0c-3.1,0-6-0.9-8.5-2.5l-2.3-6.2l-3.6-1.2
		c-0.6-1.7-1-3.5-1-5.3c0-1.2,0.1-2.4,0.4-3.5l1.7-2.5l0.9-3.1c1.8-2.5,4.4-4.4,7.4-5.4l3.5,2.1l7.2-0.7l-0.1-1.1
		c3.5,1.4,6.4,4.1,8.1,7.4c-1-0.5-2.5-1-3.9-1.1c0,0-1.2,4.8-1.7,5.4c0,0,3.6,5.1,3.3,6c0,0,2.4-0.9,3.9-1.9
		C40.3,31.4,37.9,35.4,34.5,37.9"/>
	<path class="st1" d="M22.3,18.2c-3.1,0.9-6.3,3.5-6.3,3.5c-0.8,1.7,0.3,7.1,0.3,7.1s5.7,1.6,6.6,1.4c0.9-0.2,4.2-5.4,4-6.3
		C26.6,22.8,22.3,18.2,22.3,18.2"/>
	<path class="st2" d="M66.6,44.5c-0.3,1-0.9,1.6-2,1.6h-6.2c-0.8,0-1.2-0.3-1.2-1c0-0.2,0-0.4,0.1-0.6L68.2,4.1c0.3-1,0.9-1.6,2-1.6
		h6.2c0.8,0,1.2,0.3,1.2,1c0,0.2,0,0.4-0.1,0.6l-3.3,12.4c1.2-1,2.4-1.6,3.5-1.6h6.2c6.5,0,9.8,2.6,9.8,7.7c0,1.4-0.2,3-0.7,4.7
		l-1.7,6.2C89.1,41.9,83.9,46,75.6,46h-6.2C68.2,46,67.3,45.5,66.6,44.5 M84.1,25.8c0.1-0.2,0.1-0.4,0.1-0.6c0-0.6-0.4-1-1.2-1h-9.3
		c-1,0-1.7,0.5-2,1.6l-2.5,9.3c-0.1,0.2-0.1,0.4-0.1,0.6c0,0.6,0.4,1,1.2,1h9.3c1,0,1.7-0.5,2-1.6L84.1,25.8z"/>
	<path class="st2" d="M99.6,25.8c1.9-7.3,6.5-10.9,13.8-10.9h9.3c5.8,0,8.7,2.2,8.7,6.5c0,1.1-0.2,2.3-0.5,3.6
		c-1.8,6.7-6.3,10.1-13.6,10.1h-10.9c-0.1,0.2-0.1,0.4-0.1,0.6c0,0.6,0.4,1,1.2,1h15.5c0.8,0,1.2,0.3,1.2,1c0,0.2,0,0.4-0.1,0.6
		l-1.7,6.2c-0.3,1-0.9,1.6-2,1.6h-15.5c-5.7,0-8.6-2.3-8.6-6.8c0-1.2,0.2-2.6,0.6-4.1L99.6,25.8z M108.9,25.8h11.7
		c0.5,0,0.8-0.3,1-0.8c0-0.1,0.1-0.2,0.1-0.3c0-0.3-0.2-0.5-0.6-0.5h-10.1C109.9,24.3,109.2,24.8,108.9,25.8"/>
	<path class="st2" d="M138.9,24.3c-0.8,0-1.2-0.3-1.2-1c0-0.2,0-0.4,0.1-0.6l1.7-6.2c0.3-1,0.9-1.6,2-1.6h1.6l1.2-4.7
		c0.3-1,1-1.6,2-1.6h6.2c0.8,0,1.2,0.3,1.2,1c0,0.2,0,0.4-0.1,0.6l-1.2,4.7h6.2c0.8,0,1.2,0.3,1.2,1c0,0.2,0,0.4-0.1,0.6l-1.7,6.2
		c-0.3,1-0.9,1.6-2,1.6h-6.2l-2.9,10.9c-0.1,0.2-0.1,0.4-0.1,0.6c0,0.6,0.4,1,1.2,1h4.7c0.8,0,1.2,0.3,1.2,1c0,0.2,0,0.4-0.1,0.6
		l-1.7,6.2c-0.3,1-0.9,1.6-2,1.6H147c-6.5,0-9.8-2.6-9.8-7.7c0-1.4,0.2-3,0.7-4.7l2.5-9.3H138.9z"/>
	<path class="st2" d="M186.8,19.6c1,0,1.7-0.5,2-1.6l1.2-4.7c0.1-0.2,0.1-0.4,0.1-0.6c0-0.6-0.4-1-1.2-1H178c-1,0-1.7,0.5-2,1.6
		l-0.4,1.6c-0.3,1-0.9,1.6-2,1.6h-6.2c-0.8,0-1.2-0.3-1.2-1c0-0.2,0-0.4,0.1-0.6c2.2-8.3,7.5-12.4,15.8-12.4h7.8
		c6.5,0,9.8,2.6,9.8,7.7c0,1.4-0.2,3-0.7,4.7l-0.4,1.6c-0.7,2.6-1.7,4.8-3,6.6c0.7,1.1,1.1,2.6,1.1,4.3c0,1.4-0.2,3-0.7,4.7
		l-0.4,1.6C193.2,41.9,188,46,179.7,46h-9.3c-6.5,0-9.8-2.6-9.8-7.7c0-1.4,0.2-3,0.7-4.7c0.3-1,1-1.6,2-1.6h6.2c0.8,0,1.2,0.3,1.2,1
		c0,0.2,0,0.4-0.1,0.6l-0.4,1.6c-0.1,0.2-0.1,0.4-0.1,0.6c0,0.6,0.4,1,1.2,1h12.4c1,0,1.7-0.5,2-1.6l1.2-4.7
		c0.1-0.2,0.1-0.4,0.1-0.6c0-0.6-0.4-1-1.2-1h-9.3c-0.8,0-1.2-0.3-1.2-1c0-0.2,0-0.4,0.1-0.6l1.6-6.2c0.3-1,1-1.6,2-1.6H186.8z"/>
	<path class="st2" d="M210.8,46c-6.5,0-9.8-2.6-9.8-7.7c0-1.4,0.2-3,0.7-4.7l0.4-1.6c1-3.9,2.8-6.9,5.2-9c-0.1-0.6-0.2-1.2-0.2-1.8
		c0-1.4,0.2-3,0.7-4.7l0.4-1.6c2.2-8.3,7.5-12.4,15.8-12.4h6.2c6.5,0,9.8,2.6,9.8,7.7c0,1.4-0.2,3-0.7,4.7l-0.4,1.6
		c-0.7,2.6-1.7,4.8-3,6.6c0.7,1.1,1.1,2.6,1.1,4.3c0,1.4-0.2,3-0.7,4.7l-0.4,1.6c-2.2,8.3-7.5,12.4-15.8,12.4H210.8z M213.8,28.9
		c-1,0-1.7,0.5-2,1.6l-1.2,4.7c-0.1,0.2-0.1,0.4-0.1,0.6c0,0.6,0.4,1,1.2,1h12.4c1,0,1.7-0.5,2-1.6l1.2-4.7c0.1-0.2,0.1-0.4,0.1-0.6
		c0-0.6-0.4-1-1.2-1H213.8z M227.2,19.6c1,0,1.7-0.5,2-1.6l1.2-4.7c0.1-0.2,0.1-0.4,0.1-0.6c0-0.6-0.4-1-1.2-1h-9.3
		c-1,0-1.7,0.5-2,1.6l-1.2,4.7c-0.1,0.2-0.1,0.4-0.1,0.6c0,0.6,0.4,1,1.2,1H227.2z"/>
</g>
</svg>
